# Blender v2.82 (sub 7) OBJ File: ''
# www.blender.org
mtllib cubb.mtl
o Cube
v 0.945411 0.950707 -0.996840
v 0.945411 0.999401 -0.948145
v 0.994105 0.950707 -0.948145
v 0.945411 0.009313 -0.948145
v 0.945411 0.058008 -0.996840
v 0.994105 0.058008 -0.948145
v 0.994105 0.950707 -0.055447
v 0.945411 0.999401 -0.055447
v 0.945411 0.950707 -0.006752
v 0.994105 0.058008 -0.055447
v 0.945411 0.058008 -0.006752
v 0.945411 0.009313 -0.055447
v 0.052712 0.950707 -0.996840
v 0.004018 0.950707 -0.948145
v 0.052712 0.999401 -0.948145
v 0.004018 0.058008 -0.948145
v 0.052712 0.058008 -0.996840
v 0.052712 0.009313 -0.948145
v 0.004018 0.950707 -0.055447
v 0.052712 0.950707 -0.006752
v 0.052712 0.999401 -0.055447
v 0.052712 0.009313 -0.055447
v 0.052712 0.058008 -0.006752
v 0.004018 0.058008 -0.055447
v -0.988633 0.950707 0.044506
v -0.939939 0.999401 0.044506
v -0.939939 0.950707 -0.004189
v -0.939939 0.009313 0.044506
v -0.988633 0.058008 0.044506
v -0.939939 0.058008 -0.004189
v 0.942676 0.950707 -0.004189
v 0.942676 0.999401 0.044505
v 0.991371 0.950707 0.044505
v 0.942676 0.058008 -0.004189
v 0.991371 0.058008 0.044505
v 0.942676 0.009313 0.044505
v -0.988633 0.950707 0.937204
v -0.939939 0.950707 0.985899
v -0.939939 0.999401 0.937204
v -0.939939 0.058008 0.985899
v -0.988633 0.058008 0.937204
v -0.939939 0.009313 0.937204
v 0.942676 0.950707 0.985899
v 0.991371 0.950707 0.937204
v 0.942676 0.999401 0.937204
v 0.942676 0.009313 0.937204
v 0.991371 0.058008 0.937204
v 0.942676 0.058008 0.985899
v 0.052712 1.940623 0.994103
v 0.052712 1.989318 0.945408
v 0.004018 1.940623 0.945408
v 0.052712 0.999230 0.945408
v 0.052712 1.047925 0.994103
v 0.004018 1.047925 0.945408
v 0.004018 1.940623 -0.937207
v 0.052712 1.989318 -0.937207
v 0.052712 1.940623 -0.985902
v 0.004018 1.047925 -0.937207
v 0.052712 1.047925 -0.985902
v 0.052712 0.999230 -0.937207
v 0.945411 1.940623 0.994102
v 0.994105 1.940623 0.945408
v 0.945411 1.989318 0.945408
v 0.994105 1.047925 0.945408
v 0.945411 1.047925 0.994102
v 0.945411 0.999230 0.945408
v 0.994105 1.940623 -0.937207
v 0.945411 1.940623 -0.985902
v 0.945411 1.989318 -0.937207
v 0.945411 0.999230 -0.937207
v 0.945411 1.047925 -0.985902
v 0.994105 1.047925 -0.937207
v -0.948142 0.012048 -0.047243
v -0.948142 0.060743 0.001451
v -0.996837 0.060743 -0.047243
v -0.948142 0.060743 -0.988636
v -0.948142 0.012048 -0.939942
v -0.996837 0.060743 -0.939942
v -0.996837 1.943358 -0.047243
v -0.948142 1.943358 0.001451
v -0.948142 1.992052 -0.047243
v -0.996837 1.943358 -0.939942
v -0.948142 1.992052 -0.939942
v -0.948142 1.943358 -0.988636
v -0.055444 0.012048 -0.047243
v -0.006749 0.060743 -0.047243
v -0.055444 0.060743 0.001451
v -0.006749 0.060743 -0.939942
v -0.055444 0.012048 -0.939942
v -0.055444 0.060743 -0.988636
v -0.006749 1.943358 -0.047243
v -0.055444 1.992053 -0.047243
v -0.055444 1.943358 0.001451
v -0.055444 1.943358 -0.988636
v -0.055444 1.992053 -0.939942
v -0.006749 1.943358 -0.939942
v -0.049975 1.940623 0.004015
v -0.049975 1.989318 0.052709
v -0.001280 1.940623 0.052709
v -0.049975 0.999230 0.052709
v -0.049975 1.047924 0.004015
v -0.001280 1.047924 0.052709
v -0.001280 1.940623 0.945408
v -0.049975 1.989318 0.945408
v -0.049975 1.940623 0.994103
v -0.001280 1.047924 0.945408
v -0.049975 1.047924 0.994103
v -0.049975 0.999230 0.945408
v -0.942673 1.940623 0.004015
v -0.991368 1.940623 0.052709
v -0.942673 1.989318 0.052709
v -0.991368 1.047924 0.052709
v -0.942673 1.047924 0.004015
v -0.942673 0.999230 0.052709
v -0.991368 1.940623 0.945408
v -0.942673 1.940623 0.994103
v -0.942673 1.989318 0.945408
v -0.942673 0.999230 0.945408
v -0.942673 1.047924 0.994103
v -0.991368 1.047924 0.945408
vt 0.137296 0.512295
vt 0.362704 0.512296
vt 0.362704 0.737704
vt 0.137296 0.737704
vt 0.387295 0.012296
vt 0.612705 0.012296
vt 0.612704 0.237704
vt 0.387295 0.237704
vt 0.387295 0.762295
vt 0.612705 0.762296
vt 0.612704 0.987705
vt 0.387295 0.987704
vt 0.637295 0.512295
vt 0.862704 0.512296
vt 0.862704 0.737704
vt 0.637295 0.737704
vt 0.387295 0.512295
vt 0.612705 0.512296
vt 0.612704 0.737704
vt 0.387295 0.737704
vt 0.612704 0.487704
vt 0.625000 0.487704
vt 0.612704 0.500000
vt 0.362704 0.500000
vt 0.375000 0.512296
vt 0.625000 0.737704
vt 0.612704 0.750000
vt 0.387296 0.750000
vt 0.375000 0.737704
vt 0.612705 0.262296
vt 0.612705 0.250000
vt 0.625000 0.262296
vt 0.387296 0.250000
vt 0.375000 0.237704
vt 0.612705 0.000000
vt 0.625000 0.012296
vt 0.137296 0.750000
vt 0.125000 0.737704
vt 0.125000 0.512296
vt 0.137296 0.500000
vt 0.387295 0.487704
vt 0.612705 1.000000
vt 0.387296 1.000000
vt 0.387295 0.262295
vt 0.862704 0.750000
vt 0.637296 0.750000
vt 0.362704 0.750000
vt 0.875000 0.512296
vt 0.875000 0.737704
vt 0.637296 0.500000
vt 0.862704 0.500000
vt 0.137296 0.512295
vt 0.362704 0.512296
vt 0.362704 0.737704
vt 0.137296 0.737704
vt 0.387295 0.012296
vt 0.612705 0.012296
vt 0.612704 0.237704
vt 0.387295 0.237704
vt 0.387295 0.762295
vt 0.612705 0.762296
vt 0.612704 0.987705
vt 0.387295 0.987704
vt 0.637295 0.512295
vt 0.862704 0.512296
vt 0.862704 0.737704
vt 0.637295 0.737704
vt 0.387295 0.512295
vt 0.612705 0.512296
vt 0.612704 0.737704
vt 0.387295 0.737704
vt 0.612704 0.487704
vt 0.625000 0.487704
vt 0.612704 0.500000
vt 0.362704 0.500000
vt 0.375000 0.512296
vt 0.625000 0.737704
vt 0.612704 0.750000
vt 0.387296 0.750000
vt 0.375000 0.737704
vt 0.612705 0.262296
vt 0.612705 0.250000
vt 0.625000 0.262296
vt 0.387296 0.250000
vt 0.375000 0.237704
vt 0.612705 0.000000
vt 0.625000 0.012296
vt 0.137296 0.750000
vt 0.125000 0.737704
vt 0.125000 0.512296
vt 0.137296 0.500000
vt 0.387295 0.487704
vt 0.612705 1.000000
vt 0.387296 1.000000
vt 0.387295 0.262295
vt 0.862704 0.750000
vt 0.637296 0.750000
vt 0.362704 0.750000
vt 0.875000 0.512296
vt 0.875000 0.737704
vt 0.637296 0.500000
vt 0.862704 0.500000
vt 0.137296 0.512295
vt 0.362704 0.512296
vt 0.362704 0.737704
vt 0.137296 0.737704
vt 0.387295 0.012296
vt 0.612705 0.012296
vt 0.612704 0.237704
vt 0.387295 0.237704
vt 0.387295 0.762295
vt 0.612705 0.762296
vt 0.612704 0.987705
vt 0.387295 0.987704
vt 0.637295 0.512295
vt 0.862704 0.512296
vt 0.862704 0.737704
vt 0.637295 0.737704
vt 0.387295 0.512295
vt 0.612705 0.512296
vt 0.612704 0.737704
vt 0.387295 0.737704
vt 0.612704 0.487704
vt 0.625000 0.487704
vt 0.612704 0.500000
vt 0.362704 0.500000
vt 0.375000 0.512296
vt 0.625000 0.737704
vt 0.612704 0.750000
vt 0.387296 0.750000
vt 0.375000 0.737704
vt 0.612705 0.262296
vt 0.612705 0.250000
vt 0.625000 0.262296
vt 0.387296 0.250000
vt 0.375000 0.237704
vt 0.612705 0.000000
vt 0.625000 0.012296
vt 0.137296 0.750000
vt 0.125000 0.737704
vt 0.125000 0.512296
vt 0.137296 0.500000
vt 0.387295 0.487704
vt 0.612705 1.000000
vt 0.387296 1.000000
vt 0.387295 0.262295
vt 0.862704 0.750000
vt 0.637296 0.750000
vt 0.362704 0.750000
vt 0.875000 0.512296
vt 0.875000 0.737704
vt 0.637296 0.500000
vt 0.862704 0.500000
vt 0.137296 0.512295
vt 0.362704 0.512296
vt 0.362704 0.737704
vt 0.137296 0.737704
vt 0.387295 0.012296
vt 0.612705 0.012296
vt 0.612704 0.237704
vt 0.387295 0.237704
vt 0.387295 0.762295
vt 0.612705 0.762296
vt 0.612704 0.987705
vt 0.387295 0.987704
vt 0.637295 0.512295
vt 0.862704 0.512296
vt 0.862704 0.737704
vt 0.637295 0.737704
vt 0.387295 0.512295
vt 0.612705 0.512296
vt 0.612704 0.737704
vt 0.387295 0.737704
vt 0.612704 0.487704
vt 0.625000 0.487704
vt 0.612704 0.500000
vt 0.362704 0.500000
vt 0.375000 0.512296
vt 0.625000 0.737704
vt 0.612704 0.750000
vt 0.387296 0.750000
vt 0.375000 0.737704
vt 0.612705 0.262296
vt 0.612705 0.250000
vt 0.625000 0.262296
vt 0.387296 0.250000
vt 0.375000 0.237704
vt 0.612705 0.000000
vt 0.625000 0.012296
vt 0.137296 0.750000
vt 0.125000 0.737704
vt 0.125000 0.512296
vt 0.137296 0.500000
vt 0.387295 0.487704
vt 0.612705 1.000000
vt 0.387296 1.000000
vt 0.387295 0.262295
vt 0.862704 0.750000
vt 0.637296 0.750000
vt 0.362704 0.750000
vt 0.875000 0.512296
vt 0.875000 0.737704
vt 0.637296 0.500000
vt 0.862704 0.500000
vt 0.137296 0.512295
vt 0.362704 0.512296
vt 0.362704 0.737704
vt 0.137296 0.737704
vt 0.387295 0.012296
vt 0.612705 0.012296
vt 0.612704 0.237704
vt 0.387295 0.237704
vt 0.387295 0.762295
vt 0.612705 0.762296
vt 0.612704 0.987705
vt 0.387295 0.987704
vt 0.637295 0.512295
vt 0.862704 0.512296
vt 0.862704 0.737704
vt 0.637295 0.737704
vt 0.387295 0.512295
vt 0.612705 0.512296
vt 0.612704 0.737704
vt 0.387295 0.737704
vt 0.612704 0.487704
vt 0.625000 0.487704
vt 0.612704 0.500000
vt 0.362704 0.500000
vt 0.375000 0.512296
vt 0.625000 0.737704
vt 0.612704 0.750000
vt 0.387296 0.750000
vt 0.375000 0.737704
vt 0.612705 0.262296
vt 0.612705 0.250000
vt 0.625000 0.262296
vt 0.387296 0.250000
vt 0.375000 0.237704
vt 0.612705 0.000000
vt 0.625000 0.012296
vt 0.137296 0.750000
vt 0.125000 0.737704
vt 0.125000 0.512296
vt 0.137296 0.500000
vt 0.387295 0.487704
vt 0.612705 1.000000
vt 0.387296 1.000000
vt 0.387295 0.262295
vt 0.862704 0.750000
vt 0.637296 0.750000
vt 0.362704 0.750000
vt 0.875000 0.512296
vt 0.875000 0.737704
vt 0.637296 0.500000
vt 0.862704 0.500000
vn 0.0000 -1.0000 0.0000
vn -1.0000 0.0000 0.0000
vn 0.0000 0.0000 1.0000
vn 0.0000 1.0000 0.0000
vn 1.0000 0.0000 0.0000
vn 0.5774 0.5773 -0.5774
vn 0.5774 -0.5774 -0.5774
vn 0.5774 0.5773 0.5774
vn 0.5774 -0.5773 0.5774
vn -0.5774 0.5773 -0.5774
vn -0.5773 -0.5774 -0.5774
vn -0.5774 0.5774 0.5774
vn -0.5774 -0.5774 0.5774
vn -0.7071 -0.7071 0.0000
vn 0.0000 -0.7071 -0.7071
vn 0.7071 0.0000 -0.7071
vn -0.7071 0.0000 0.7071
vn 0.7071 0.0000 0.7071
vn -0.7071 0.0000 -0.7071
vn 0.0000 0.7071 0.7071
vn 0.7071 0.7071 0.0000
vn 0.0000 -0.7071 0.7071
vn -0.7071 0.7071 0.0000
vn 0.0000 0.7071 -0.7071
vn 0.7071 -0.7071 0.0000
vn 0.0000 0.0000 -1.0000
vn -0.5774 0.5774 -0.5773
vn -0.5774 -0.5774 -0.5773
vn 0.5773 0.5774 -0.5774
vn 0.5773 -0.5774 -0.5774
vn -0.5774 0.5773 0.5773
vn -0.5774 -0.5773 0.5774
vn 0.5773 0.5774 0.5773
vn 0.5773 -0.5774 0.5773
vn -0.5774 0.5773 0.5774
vn -0.5774 -0.5773 0.5773
vn 0.5774 0.5774 0.5774
vn 0.5773 -0.5773 0.5774
vn 0.5774 0.5774 -0.5773
vn 0.5774 -0.5774 -0.5773
vn 0.5774 -0.5774 0.5774
vn 0.5773 0.5773 0.5774
vn 0.5773 0.5773 -0.5774
vn 0.5773 -0.5774 -0.5773
vn 0.5774 0.5774 0.5773
vn -0.5773 0.5773 -0.5774
vn -0.5773 -0.5773 -0.5774
vn -0.5773 0.5773 0.5774
vn -0.5773 -0.5774 0.5774
usemtl Material
s off
f 18/1/1 4/2/1 12/3/1 22/4/1
f 24/5/2 19/6/2 14/7/2 16/8/2
f 11/9/3 9/10/3 20/11/3 23/12/3
f 2/13/4 15/14/4 21/15/4 8/16/4
f 6/17/5 3/18/5 7/19/5 10/20/5
f 1/21/6 2/22/6 3/23/6
f 4/2/7 5/24/7 6/25/7
f 7/19/8 8/26/8 9/27/8
f 10/20/9 11/28/9 12/29/9
f 13/30/10 14/31/10 15/32/10
f 16/8/11 17/33/11 18/34/11
f 19/6/12 20/35/12 21/36/12
f 22/4/13 23/37/13 24/38/13
f 18/1/14 22/4/14 24/38/14 16/39/14
f 4/2/15 18/1/15 17/40/15 5/24/15
f 3/18/16 6/17/16 5/41/16 1/21/16
f 23/12/17 20/11/17 19/42/17 24/43/17
f 9/10/18 11/9/18 10/20/18 7/19/18
f 13/30/19 17/44/19 16/8/19 14/7/19
f 8/16/20 21/15/20 20/45/20 9/46/20
f 2/13/21 8/16/21 7/19/21 3/18/21
f 22/4/22 12/3/22 11/47/22 23/37/22
f 21/15/23 15/14/23 14/48/23 19/49/23
f 15/14/24 2/13/24 1/50/24 13/51/24
f 12/3/25 4/2/25 6/17/25 10/20/25
f 17/44/26 13/30/26 1/21/26 5/41/26
f 42/52/1 28/53/1 36/54/1 46/55/1
f 48/56/3 43/57/3 38/58/3 40/59/3
f 35/60/5 33/61/5 44/62/5 47/63/5
f 26/64/4 39/65/4 45/66/4 32/67/4
f 30/68/26 27/69/26 31/70/26 34/71/26
f 25/72/27 26/73/27 27/74/27
f 28/53/28 29/75/28 30/76/28
f 31/70/29 32/77/29 33/78/29
f 34/71/30 35/79/30 36/80/30
f 37/81/31 38/82/31 39/83/31
f 40/59/32 41/84/32 42/85/32
f 43/57/33 44/86/33 45/87/33
f 46/55/34 47/88/34 48/89/34
f 42/52/22 46/55/22 48/89/22 40/90/22
f 28/53/14 42/52/14 41/91/14 29/75/14
f 27/69/19 30/68/19 29/92/19 25/72/19
f 47/63/18 44/62/18 43/93/18 48/94/18
f 33/61/16 35/60/16 34/71/16 31/70/16
f 37/81/17 41/95/17 40/59/17 38/58/17
f 32/67/21 45/66/21 44/96/21 33/97/21
f 26/64/24 32/67/24 31/70/24 27/69/24
f 46/55/25 36/54/25 35/98/25 47/88/25
f 45/66/20 39/65/20 38/99/20 43/100/20
f 39/65/23 26/64/23 25/101/23 37/102/23
f 36/54/15 28/53/15 30/68/15 34/71/15
f 41/95/2 37/81/2 25/72/2 29/92/2
f 66/103/1 52/104/1 60/105/1 70/106/1
f 72/107/5 67/108/5 62/109/5 64/110/5
f 59/111/26 57/112/26 68/113/26 71/114/26
f 50/115/4 63/116/4 69/117/4 56/118/4
f 54/119/2 51/120/2 55/121/2 58/122/2
f 49/123/35 50/124/35 51/125/35
f 52/104/36 53/126/36 54/127/36
f 55/121/27 56/128/27 57/129/27
f 58/122/28 59/130/28 60/131/28
f 61/132/37 62/133/37 63/134/37
f 64/110/38 65/135/38 66/136/38
f 67/108/39 68/137/39 69/138/39
f 70/106/40 71/139/40 72/140/40
f 66/103/25 70/106/25 72/140/25 64/141/25
f 52/104/22 66/103/22 65/142/22 53/126/22
f 51/120/17 54/119/17 53/143/17 49/123/17
f 71/114/16 68/113/16 67/144/16 72/145/16
f 57/112/19 59/111/19 58/122/19 55/121/19
f 61/132/18 65/146/18 64/110/18 62/109/18
f 56/118/24 69/117/24 68/147/24 57/148/24
f 50/115/23 56/118/23 55/121/23 51/120/23
f 70/106/15 60/105/15 59/149/15 71/139/15
f 69/117/21 63/116/21 62/150/21 67/151/21
f 63/116/20 50/115/20 49/152/20 61/153/20
f 60/105/14 52/104/14 54/119/14 58/122/14
f 65/146/3 61/132/3 49/123/3 53/143/3
f 90/154/26 76/155/26 84/156/26 94/157/26
f 96/158/5 91/159/5 86/160/5 88/161/5
f 83/162/4 81/163/4 92/164/4 95/165/4
f 74/166/3 87/167/3 93/168/3 80/169/3
f 78/170/2 75/171/2 79/172/2 82/173/2
f 73/174/36 74/175/36 75/176/36
f 76/155/28 77/177/28 78/178/28
f 79/172/35 80/179/35 81/180/35
f 82/173/10 83/181/10 84/182/10
f 85/183/41 86/184/41 87/185/41
f 88/161/40 89/186/40 90/187/40
f 91/159/42 92/188/42 93/189/42
f 94/157/43 95/190/43 96/191/43
f 90/154/16 94/157/16 96/191/16 88/192/16
f 76/155/15 90/154/15 89/193/15 77/177/15
f 75/171/14 78/170/14 77/194/14 73/174/14
f 95/165/21 92/164/21 91/195/21 96/196/21
f 81/163/23 83/162/23 82/173/23 79/172/23
f 85/183/25 89/197/25 88/161/25 86/160/25
f 80/169/20 93/168/20 92/198/20 81/199/20
f 74/166/17 80/169/17 79/172/17 75/171/17
f 94/157/24 84/156/24 83/200/24 95/190/24
f 93/168/18 87/167/18 86/201/18 91/202/18
f 87/167/22 74/166/22 73/203/22 85/204/22
f 84/156/19 76/155/19 78/170/19 82/173/19
f 89/197/1 85/183/1 73/174/1 77/194/1
f 114/205/1 100/206/1 108/207/1 118/208/1
f 120/209/2 115/210/2 110/211/2 112/212/2
f 107/213/3 105/214/3 116/215/3 119/216/3
f 98/217/4 111/218/4 117/219/4 104/220/4
f 102/221/5 99/222/5 103/223/5 106/224/5
f 97/225/39 98/226/39 99/227/39
f 100/206/44 101/228/44 102/229/44
f 103/223/45 104/230/45 105/231/45
f 106/224/34 107/232/34 108/233/34
f 109/234/46 110/235/46 111/236/46
f 112/212/47 113/237/47 114/238/47
f 115/210/48 116/239/48 117/240/48
f 118/208/49 119/241/49 120/242/49
f 114/205/14 118/208/14 120/242/14 112/243/14
f 100/206/15 114/205/15 113/244/15 101/228/15
f 99/222/16 102/221/16 101/245/16 97/225/16
f 119/216/17 116/215/17 115/246/17 120/247/17
f 105/214/18 107/213/18 106/224/18 103/223/18
f 109/234/19 113/248/19 112/212/19 110/211/19
f 104/220/20 117/219/20 116/249/20 105/250/20
f 98/217/21 104/220/21 103/223/21 99/222/21
f 118/208/22 108/207/22 107/251/22 119/241/22
f 117/219/23 111/218/23 110/252/23 115/253/23
f 111/218/24 98/217/24 97/254/24 109/255/24
f 108/207/25 100/206/25 102/221/25 106/224/25
f 113/248/26 109/234/26 97/225/26 101/245/26
