# Blender v2.82 (sub 7) OBJ File: ''
# www.blender.org
mtllib grass.mtl
o Cube.001
v -0.714267 2.003587 0.713727
v -1.009247 2.007668 0.714330
v -1.000000 2.000000 1.000000
v -0.714268 2.000399 0.999983
v 1.000000 -0.000000 1.000000
v 1.000000 2.000000 1.000000
v 0.904788 1.998793 1.000036
v 0.809520 1.999483 1.000005
v 0.714286 1.999783 1.000001
v 0.428572 2.000162 1.000003
v 0.142857 2.000000 1.000000
v -0.142857 1.999999 1.000000
v -0.428571 2.000000 1.000000
v -1.000000 -0.000000 1.000000
v -1.000000 2.000000 0.428571
v -0.988076 1.986505 0.143327
v -0.994599 1.989899 -0.142543
v -0.999982 2.000439 -0.428575
v -0.990495 1.989217 -0.714931
v -1.000000 2.000000 -1.000000
v -1.000000 0.000000 -1.000000
v 1.000000 0.000000 -1.000000
v 1.000000 2.000000 -1.000000
v 1.000000 2.000000 -0.714286
v 1.000000 2.000000 -0.428571
v 1.000000 2.000000 -0.142857
v 1.000000 2.000000 0.142857
v 1.000000 2.000000 0.428571
v 1.000008 1.995713 0.714337
v 1.000125 1.995217 0.809703
v 1.000088 1.997539 0.904854
v -0.714286 2.000000 -1.000000
v -0.428571 2.000000 -1.000000
v -0.142857 2.000000 -1.000000
v 0.142857 2.000000 -1.000000
v 0.428571 2.000000 -1.000000
v 0.714286 2.000000 -1.000000
v 0.807956 1.954428 0.904692
v 0.714661 1.993334 0.904610
v 0.714159 2.015905 0.713338
v 0.423181 2.043945 0.727358
v 0.714048 2.003148 0.807972
v 0.136674 1.978885 0.715127
v -0.142930 2.043222 0.714239
v -0.428343 2.000011 0.714028
v -0.506027 2.009024 0.722385
v -0.590819 2.008224 0.759191
v 0.698678 2.011009 -0.673202
v 0.660148 2.080577 -0.500814
v 0.671303 2.071084 -0.414082
v 0.742617 2.053895 -0.319683
v 0.706493 2.016666 -0.152386
v 0.717421 2.016862 -0.024580
v 0.715637 2.036635 0.426476
v 0.808052 1.968494 0.713469
v 0.904680 1.949291 0.714977
v 0.428372 2.000237 -0.714154
v 0.535006 2.057266 -0.579037
v 0.619097 2.081790 -0.548631
v 0.540764 2.076042 -0.427874
v 0.480622 2.067831 -0.427149
v 0.401419 2.051909 -0.327265
v 0.522307 2.065731 -0.374847
v 0.625565 2.065196 -0.372914
v 0.428571 2.000000 -0.142857
v 0.429207 2.000988 0.148957
v 0.439883 2.042669 0.449781
v 0.141454 1.977112 -0.714217
v 0.142857 1.982371 -0.428571
v 0.496893 2.057797 -0.542117
v 0.190248 1.999435 -0.190988
v 0.142734 1.998024 -0.047973
v 0.159565 2.021771 0.022978
v 0.154685 2.029468 0.080911
v 0.130537 2.088207 0.497425
v -0.142937 1.997625 -0.714177
v -0.145991 1.994417 -0.617267
v -0.149766 1.987241 -0.523940
v -0.148002 1.980997 -0.430055
v -0.186902 2.009120 -0.197713
v -0.047430 2.017761 -0.145633
v 0.046880 2.017394 -0.144593
v -0.047064 2.013769 0.046341
v -0.103682 2.014787 0.046393
v -0.068619 2.036806 0.210954
v -0.031746 2.013696 0.167431
v 0.047619 1.999746 0.142857
v -0.142813 1.999996 0.428567
v -0.426760 1.978331 -0.714914
v -0.329776 1.988980 -0.712146
v -0.238539 1.995344 -0.712854
v -0.321113 2.006290 -0.528073
v -0.388204 2.016422 -0.502976
v -0.477056 2.083938 -0.369100
v -0.344219 2.018171 -0.455973
v -0.243800 1.999616 -0.472263
v -0.433920 2.020478 -0.147439
v -0.412199 2.023287 0.159586
v -0.117629 2.017081 -0.067885
v -0.428240 1.969467 0.428895
v -0.428388 1.968703 0.523914
v -0.428564 1.986184 0.619052
v -0.713528 2.000597 -0.712133
v -0.685142 1.944311 -0.516402
v -0.376706 1.996671 -0.611863
v -0.716163 1.993186 -0.142076
v -0.713886 2.013442 0.142709
v -0.705283 2.041945 0.364520
v -0.611607 2.030827 0.441941
v -0.518912 1.993507 0.432778
v -0.593145 1.961926 0.742542
v -0.714412 1.981158 0.617245
v -0.692743 2.039541 0.463236
v 0.611878 2.075141 -0.424952
v 0.610016 2.086241 -0.486795
v 0.548625 2.089930 -0.489576
v 0.047737 1.999869 0.047098
v 0.047580 2.009811 -0.049380
v -0.046708 2.027284 -0.050706
v -0.237524 1.997812 -0.535804
v -0.234804 1.996939 -0.620206
v -0.315630 1.997278 -0.618010
v -0.518814 1.955785 0.683261
v -0.521237 1.965186 0.529723
v -0.613680 1.992270 0.535199
v 0.905372 1.953294 0.905992
v 0.905152 1.932754 0.811006
v 0.805659 1.941936 0.808078
v 1.000000 2.000000 -1.000000
v 1.000000 2.000000 1.000000
v -1.000000 2.000000 -1.000000
v -1.000000 2.000000 1.000000
vt 0.839286 0.714286
vt 0.875000 0.714286
vt 0.875000 0.750000
vt 0.839286 0.750000
vt 0.375000 0.750000
vt 0.625000 0.750000
vt 0.625000 0.761905
vt 0.625000 0.773809
vt 0.625000 0.785714
vt 0.625000 0.821429
vt 0.625000 0.857143
vt 0.625000 0.892857
vt 0.625000 0.928571
vt 0.625000 0.964286
vt 0.625000 1.000000
vt 0.375000 1.000000
vt 0.375000 0.000000
vt 0.625000 0.000000
vt 0.625000 0.035714
vt 0.625000 0.071429
vt 0.625000 0.107143
vt 0.625000 0.142857
vt 0.625000 0.178571
vt 0.625000 0.214286
vt 0.625000 0.250000
vt 0.375000 0.250000
vt 0.125000 0.500000
vt 0.375000 0.500000
vt 0.125000 0.750000
vt 0.625000 0.500000
vt 0.625000 0.535714
vt 0.625000 0.571429
vt 0.625000 0.607143
vt 0.625000 0.642857
vt 0.625000 0.678571
vt 0.625000 0.714286
vt 0.625000 0.726190
vt 0.625000 0.738095
vt 0.625000 0.285714
vt 0.625000 0.321429
vt 0.625000 0.357143
vt 0.625000 0.392857
vt 0.625000 0.428571
vt 0.625000 0.464286
vt 0.648809 0.738095
vt 0.660714 0.738095
vt 0.660714 0.750000
vt 0.648809 0.750000
vt 0.660714 0.714286
vt 0.696429 0.714286
vt 0.696429 0.750000
vt 0.660714 0.726190
vt 0.732143 0.714286
vt 0.732143 0.750000
vt 0.767857 0.714286
vt 0.767857 0.750000
vt 0.803571 0.714286
vt 0.803571 0.750000
vt 0.815476 0.714286
vt 0.827381 0.714286
vt 0.660714 0.500000
vt 0.660714 0.535714
vt 0.660714 0.547619
vt 0.660714 0.559524
vt 0.660714 0.571429
vt 0.660714 0.607143
vt 0.660714 0.642857
vt 0.660714 0.678571
vt 0.648809 0.714286
vt 0.636905 0.714286
vt 0.696429 0.500000
vt 0.696429 0.535714
vt 0.684524 0.535714
vt 0.672619 0.535714
vt 0.684524 0.559524
vt 0.696429 0.559524
vt 0.696429 0.571429
vt 0.684524 0.571429
vt 0.672619 0.571429
vt 0.696429 0.607143
vt 0.696429 0.642857
vt 0.696429 0.678571
vt 0.732143 0.500000
vt 0.732143 0.535714
vt 0.732143 0.571429
vt 0.696429 0.547619
vt 0.732143 0.607143
vt 0.732143 0.619048
vt 0.732143 0.630952
vt 0.732143 0.642857
vt 0.732143 0.678571
vt 0.767857 0.500000
vt 0.767857 0.535714
vt 0.767857 0.547619
vt 0.767857 0.559524
vt 0.767857 0.571429
vt 0.767857 0.607143
vt 0.755952 0.607143
vt 0.744048 0.607143
vt 0.755952 0.630952
vt 0.767857 0.630952
vt 0.767857 0.642857
vt 0.755952 0.642857
vt 0.744048 0.642857
vt 0.767857 0.678571
vt 0.803571 0.500000
vt 0.803571 0.535714
vt 0.791667 0.535714
vt 0.779762 0.535714
vt 0.791667 0.559524
vt 0.803571 0.559524
vt 0.803571 0.571429
vt 0.791667 0.571429
vt 0.779762 0.571429
vt 0.803571 0.607143
vt 0.803571 0.642857
vt 0.767857 0.619048
vt 0.803571 0.678571
vt 0.803571 0.690476
vt 0.803571 0.702381
vt 0.839286 0.500000
vt 0.839286 0.535714
vt 0.839286 0.571429
vt 0.803571 0.547619
vt 0.839286 0.607143
vt 0.839286 0.642857
vt 0.839286 0.678571
vt 0.827381 0.678571
vt 0.815476 0.678571
vt 0.827381 0.702381
vt 0.839286 0.702381
vt 0.875000 0.500000
vt 0.875000 0.535714
vt 0.875000 0.571429
vt 0.875000 0.607143
vt 0.875000 0.642857
vt 0.875000 0.678571
vt 0.839286 0.690476
vt 0.672619 0.559524
vt 0.672619 0.547619
vt 0.684524 0.547619
vt 0.744048 0.630952
vt 0.744048 0.619048
vt 0.755952 0.619048
vt 0.779762 0.559524
vt 0.779762 0.547619
vt 0.791667 0.547619
vt 0.815476 0.702381
vt 0.815476 0.690476
vt 0.827381 0.690476
vt 0.636905 0.738095
vt 0.636905 0.750000
vt 0.636905 0.726190
vt 0.648809 0.726190
vn 0.0085 0.9997 0.0227
vn 0.0064 0.9998 0.0189
vn 0.0075 0.9998 0.0209
vn 0.0000 -0.0000 1.0000
vn -1.0000 0.0013 -0.0000
vn 0.0000 -1.0000 -0.0000
vn 1.0000 -0.0000 0.0000
vn 0.0000 0.0000 -1.0000
vn 0.1969 0.9462 -0.2568
vn 0.0741 0.9916 0.1056
vn -0.1140 0.9926 0.0427
vn 0.1129 0.9929 0.0372
vn -0.0753 0.9943 0.0752
vn 0.0086 0.9997 0.0230
vn 0.0175 0.9997 -0.0175
vn 0.1667 0.9825 -0.0832
vn 0.1429 0.9854 0.0924
vn 0.0587 0.9983 -0.0020
vn 0.1017 0.9945 -0.0264
vn 0.0971 0.9837 0.1514
vn -0.0142 0.9930 -0.1169
vn -0.0906 0.9896 0.1119
vn -0.0250 0.9694 0.2443
vn -0.0578 0.9983 -0.0012
vn -0.0456 0.9957 -0.0808
vn 0.0624 0.9974 0.0364
vn -0.0403 0.9984 0.0395
vn -0.1944 0.9758 -0.0999
vn -0.1715 0.9789 0.1111
vn 0.0379 0.9977 -0.0567
vn 0.1293 0.9824 -0.1351
vn -0.0194 0.9769 0.2127
vn 0.0359 0.9984 0.0442
vn 0.0367 0.9991 0.0205
vn 0.0151 0.9929 -0.1178
vn 0.2000 0.9736 -0.1101
vn -0.1899 0.9753 -0.1128
vn -0.0592 0.9897 0.1307
vn -0.0341 0.9989 0.0325
vn 0.2223 0.9442 -0.2431
vn 0.2109 0.9774 0.0128
vn 0.0111 0.9989 -0.0459
vn -0.0824 0.9824 0.1676
vn -0.1435 0.9815 -0.1269
vn 0.0390 0.9986 0.0366
vn -0.1125 0.9860 -0.1227
vn -0.3298 0.9436 0.0298
vn -0.0627 0.9974 -0.0363
vn -0.0586 0.9978 -0.0325
vn -0.0553 0.9981 -0.0282
vn 0.1209 0.9922 0.0316
vn 0.3854 0.7849 -0.4852
vn -0.0203 0.9996 0.0181
vn 0.0878 0.9921 0.0893
vn 0.0806 0.9952 -0.0546
vn -0.0546 0.9981 -0.0286
vn -0.1290 0.9882 -0.0827
vn -0.0257 0.9984 0.0509
vn 0.0246 0.9854 0.1683
vn 0.0028 0.9819 0.1894
vn 0.2977 0.9260 -0.2321
vn 0.0913 0.9874 0.1289
vn -0.0851 0.9683 -0.2350
vn 0.0254 0.9796 0.1994
vn -0.2308 0.9399 -0.2518
vn -0.3291 0.9440 -0.0244
vn -0.2499 0.9667 -0.0558
vn 0.1565 0.9876 -0.0101
vn 0.1354 0.9887 0.0639
vn -0.0570 0.9955 -0.0763
vn 0.0943 0.9955 -0.0109
vn 0.1612 0.9797 0.1189
vn -0.0710 0.9959 -0.0554
vn -0.0822 0.9934 0.0796
vn 0.1477 0.9885 0.0321
vn 0.1360 0.9882 -0.0702
vn 0.0012 1.0000 0.0085
vn 0.0707 0.9968 0.0379
vn -0.0358 0.9981 -0.0494
vn 0.0502 0.9973 -0.0542
vn -0.0729 0.9912 -0.1102
vn 0.0395 0.9894 -0.1398
vn -0.2861 0.8678 -0.4063
vn -0.4388 0.4890 -0.7539
vn 0.1177 0.9816 0.1502
vn -0.1932 0.9807 -0.0301
vn 0.3338 0.8868 0.3195
vn 0.2289 0.9691 0.0922
vn 0.1559 0.9677 0.1980
vn 0.0870 0.9674 0.2378
vn -0.2273 0.9438 -0.2401
vn 0.0115 0.9021 -0.4314
vn -0.4945 0.8656 0.0786
vn -0.4887 0.8663 -0.1037
vn 0.1349 0.9662 0.2198
vn 0.0552 0.9838 -0.1703
vn 0.4966 0.8485 0.1828
vn 0.4761 0.8792 -0.0194
usemtl Material.001
s 1
f 1/1/1 2/2/2 3/3/2 4/4/3
f 5/5/4 6/6/4 7/7/4 8/8/4 9/9/4 10/10/4 11/11/4 12/12/4 13/13/4 4/14/4 3/15/4 14/16/4
f 14/17/5 3/18/5 2/19/5 15/20/5 16/21/5 17/22/5 18/23/5 19/24/5 20/25/5 21/26/5
f 21/27/6 22/28/6 5/5/6 14/29/6
f 22/28/7 23/30/7 24/31/7 25/32/7 26/33/7 27/34/7 28/35/7 29/36/7 30/37/7 31/38/7 6/6/7 5/5/7
f 21/26/8 20/25/8 32/39/8 33/40/8 34/41/8 35/42/8 36/43/8 37/44/8 23/30/8 22/28/8
f 38/45/9 39/46/9 9/47/9 8/48/9
f 40/49/10 41/50/10 10/51/10 9/47/10 39/46/10 42/52/10
f 41/50/11 43/53/11 11/54/11 10/51/11
f 43/53/12 44/55/12 12/56/12 11/54/12
f 44/55/13 45/57/13 13/58/13 12/56/13
f 45/57/14 46/59/14 47/60/14 1/1/1 4/4/3 13/58/14
f 23/30/15 37/61/15 48/62/15 24/31/15
f 24/31/16 48/62/16 49/63/16 50/64/16 51/65/16 25/32/16
f 25/32/17 51/65/17 52/66/17 26/33/17
f 26/33/18 52/66/18 53/67/18 27/34/18
f 27/34/19 53/67/19 54/68/19 28/35/19
f 28/35/20 54/68/20 40/49/20 55/69/20 56/70/20 29/36/20
f 37/61/21 36/71/21 57/72/21 58/73/21 59/74/21 48/62/21
f 60/75/22 61/76/22 62/77/22 63/78/22
f 51/65/23 64/79/23 63/78/23 62/77/23 65/80/23 52/66/23
f 52/66/24 65/80/24 66/81/24 53/67/24
f 53/67/25 66/81/25 67/82/25 54/68/25
f 54/68/26 67/82/26 41/50/26 40/49/26
f 36/71/27 35/83/27 68/84/27 57/72/27
f 57/72/28 68/84/28 69/85/28 62/77/28 61/76/28 70/86/28
f 62/77/29 69/85/29 71/87/29 65/80/29
f 65/80/30 71/87/30 72/88/30 73/89/30 74/90/30 66/81/30
f 66/81/31 74/90/31 75/91/31 67/82/31
f 67/82/32 75/91/32 43/53/32 41/50/32
f 35/83/33 34/92/33 76/93/33 68/84/33
f 68/84/34 76/93/34 77/94/34 78/95/34 79/96/34 69/85/34
f 69/85/35 79/96/35 80/97/35 81/98/35 82/99/35 71/87/35
f 83/100/36 84/101/36 85/102/36 86/103/36
f 74/90/37 87/104/37 86/103/37 85/102/37 88/105/37 75/91/37
f 75/91/38 88/105/38 44/55/38 43/53/38
f 34/92/39 33/106/39 89/107/39 90/108/39 91/109/39 76/93/39
f 92/110/40 93/111/40 94/112/40 95/113/40
f 79/96/41 96/114/41 95/113/41 94/112/41 97/115/41 80/97/41
f 80/97/42 97/115/42 98/116/42 85/102/42 84/101/42 99/117/42
f 85/102/43 98/116/43 100/118/43 88/105/43
f 88/105/44 100/118/44 101/119/44 102/120/44 45/57/44 44/55/44
f 33/106/45 32/121/45 103/122/45 89/107/45
f 89/107/46 103/122/46 104/123/46 94/112/46 93/111/46 105/124/46
f 94/112/47 104/123/47 106/125/47 97/115/47
f 97/115/48 106/125/49 107/126/50 98/116/48
f 98/116/51 107/126/51 108/127/51 109/128/51 110/129/51 100/118/51
f 111/130/52 112/131/52 1/1/52 47/60/52
f 32/121/53 20/132/53 19/133/53 103/122/53
f 103/122/54 19/133/54 18/134/54 104/123/54
f 104/123/55 18/134/55 17/135/55 106/125/55
f 106/125/49 17/135/56 16/136/56 107/126/50
f 107/126/57 16/136/57 15/137/57 108/127/57
f 108/127/58 15/137/58 2/2/58 1/1/58 112/131/58 113/138/58
f 50/64/59 114/139/59 64/79/59 51/65/59
f 114/139/60 60/75/60 63/78/60 64/79/60
f 48/62/61 59/74/61 115/140/61 49/63/61
f 49/63/62 115/140/62 114/139/62 50/64/62
f 59/74/63 58/73/63 116/141/63 115/140/63
f 115/140/64 116/141/64 60/75/64 114/139/64
f 58/73/65 57/72/65 70/86/65 116/141/65
f 116/141/66 70/86/66 61/76/66 60/75/66
f 73/89/67 117/142/67 87/104/67 74/90/67
f 117/142/68 83/100/68 86/103/68 87/104/68
f 71/87/69 82/99/69 118/143/69 72/88/69
f 72/88/70 118/143/70 117/142/70 73/89/70
f 82/99/71 81/98/71 119/144/71 118/143/71
f 118/143/72 119/144/72 83/100/72 117/142/72
f 81/98/73 80/97/73 99/117/73 119/144/73
f 119/144/74 99/117/74 84/101/74 83/100/74
f 78/95/75 120/145/75 96/114/75 79/96/75
f 120/145/76 92/110/76 95/113/76 96/114/76
f 76/93/77 91/109/77 121/146/77 77/94/77
f 77/94/78 121/146/78 120/145/78 78/95/78
f 91/109/79 90/108/79 122/147/79 121/146/79
f 121/146/80 122/147/80 92/110/80 120/145/80
f 90/108/81 89/107/81 105/124/81 122/147/81
f 122/147/82 105/124/82 93/111/82 92/110/82
f 102/120/83 123/148/83 46/59/83 45/57/83
f 123/148/84 111/130/84 47/60/84 46/59/84
f 100/118/85 110/129/85 124/149/85 101/119/85
f 101/119/86 124/149/86 123/148/86 102/120/86
f 110/129/87 109/128/87 125/150/87 124/149/87
f 124/149/88 125/150/88 111/130/88 123/148/88
f 109/128/89 108/127/89 113/138/89 125/150/89
f 125/150/90 113/138/90 112/131/90 111/130/90
f 31/38/91 126/151/91 7/152/91 6/6/91
f 126/151/92 38/45/92 8/48/92 7/152/92
f 29/36/93 56/70/93 127/153/93 30/37/93
f 30/37/94 127/153/94 126/151/94 31/38/94
f 56/70/95 55/69/95 128/154/95 127/153/95
f 127/153/96 128/154/96 38/45/96 126/151/96
f 55/69/97 40/49/97 42/52/97 128/154/97
f 128/154/98 42/52/98 39/46/98 38/45/98
l 3 132
l 20 131
l 6 130
l 23 129
